<svg width="233" height="37" viewBox="0 0 233 37" fill="none" xmlns="http://www.w3.org/2000/svg">
<path d="M18.562 36L10.594 22.32H5.314V36H0.946V2.544H11.746C14.274 2.544 16.402 2.976 18.13 3.84C19.89 4.704 21.202 5.872 22.066 7.344C22.93 8.816 23.362 10.496 23.362 12.384C23.362 14.688 22.69 16.72 21.346 18.48C20.034 20.24 18.05 21.408 15.394 21.984L23.794 36H18.562ZM5.314 18.816H11.746C14.114 18.816 15.89 18.24 17.074 17.088C18.258 15.904 18.85 14.336 18.85 12.384C18.85 10.4 18.258 8.864 17.074 7.776C15.922 6.688 14.146 6.144 11.746 6.144H5.314V18.816ZM54.1491 21.84C54.1491 22.672 54.1011 23.552 54.0051 24.48H32.9811C33.1411 27.072 34.0211 29.104 35.6211 30.576C37.2531 32.016 39.2211 32.736 41.5251 32.736C43.4131 32.736 44.9811 32.304 46.2291 31.44C47.5091 30.544 48.4051 29.36 48.9171 27.888H53.6211C52.9171 30.416 51.5091 32.48 49.3971 34.08C47.2851 35.648 44.6611 36.432 41.5251 36.432C39.0291 36.432 36.7891 35.872 34.8051 34.752C32.8531 33.632 31.3171 32.048 30.1971 30C29.0771 27.92 28.5171 25.52 28.5171 22.8C28.5171 20.08 29.0611 17.696 30.1491 15.648C31.2371 13.6 32.7571 12.032 34.7091 10.944C36.6931 9.824 38.9651 9.264 41.5251 9.264C44.0211 9.264 46.2291 9.808 48.1491 10.896C50.0691 11.984 51.5411 13.488 52.5651 15.408C53.6211 17.296 54.1491 19.44 54.1491 21.84ZM49.6371 20.928C49.6371 19.264 49.2691 17.84 48.5331 16.656C47.7971 15.44 46.7891 14.528 45.5091 13.92C44.2611 13.28 42.8691 12.96 41.3331 12.96C39.1251 12.96 37.2371 13.664 35.6691 15.072C34.1331 16.48 33.2531 18.432 33.0291 20.928H49.6371ZM72.7308 9.216C75.9308 9.216 78.5228 10.192 80.5068 12.144C82.4908 14.064 83.4828 16.848 83.4828 20.496V36H79.1628V21.12C79.1628 18.496 78.5068 16.496 77.1948 15.12C75.8828 13.712 74.0908 13.008 71.8188 13.008C69.5148 13.008 67.6748 13.728 66.2988 15.168C64.9548 16.608 64.2828 18.704 64.2828 21.456V36H59.9148V9.696H64.2828V13.44C65.1468 12.096 66.3148 11.056 67.7868 10.32C69.2908 9.584 70.9388 9.216 72.7308 9.216ZM95.9459 13.296V28.8C95.9459 30.08 96.2179 30.992 96.7619 31.536C97.3059 32.048 98.2499 32.304 99.5939 32.304H102.81V36H98.8739C96.4419 36 94.6179 35.44 93.4019 34.32C92.1859 33.2 91.5779 31.36 91.5779 28.8V13.296H88.1699V9.696H91.5779V3.072H95.9459V9.696H102.81V13.296H95.9459ZM137.651 18.768C138.867 18.96 139.971 19.456 140.963 20.256C141.987 21.056 142.787 22.048 143.363 23.232C143.971 24.416 144.275 25.68 144.275 27.024C144.275 28.72 143.843 30.256 142.979 31.632C142.115 32.976 140.851 34.048 139.187 34.848C137.555 35.616 135.619 36 133.379 36H120.899V2.544H132.899C135.171 2.544 137.107 2.928 138.707 3.696C140.307 4.432 141.507 5.44 142.307 6.72C143.107 8 143.507 9.44 143.507 11.04C143.507 13.024 142.963 14.672 141.875 15.984C140.819 17.264 139.411 18.192 137.651 18.768ZM125.267 16.992H132.611C134.659 16.992 136.243 16.512 137.363 15.552C138.483 14.592 139.043 13.264 139.043 11.568C139.043 9.872 138.483 8.544 137.363 7.584C136.243 6.624 134.627 6.144 132.515 6.144H125.267V16.992ZM132.995 32.4C135.171 32.4 136.867 31.888 138.083 30.864C139.299 29.84 139.907 28.416 139.907 26.592C139.907 24.736 139.267 23.28 137.987 22.224C136.707 21.136 134.995 20.592 132.851 20.592H125.267V32.4H132.995ZM161.809 36.432C159.345 36.432 157.105 35.872 155.089 34.752C153.105 33.632 151.537 32.048 150.385 30C149.265 27.92 148.705 25.52 148.705 22.8C148.705 20.112 149.281 17.744 150.433 15.696C151.617 13.616 153.217 12.032 155.233 10.944C157.249 9.824 159.505 9.264 162.001 9.264C164.497 9.264 166.753 9.824 168.769 10.944C170.785 12.032 172.369 13.6 173.521 15.648C174.705 17.696 175.297 20.08 175.297 22.8C175.297 25.52 174.689 27.92 173.473 30C172.289 32.048 170.673 33.632 168.625 34.752C166.577 35.872 164.305 36.432 161.809 36.432ZM161.809 32.592C163.377 32.592 164.849 32.224 166.225 31.488C167.601 30.752 168.705 29.648 169.537 28.176C170.401 26.704 170.833 24.912 170.833 22.8C170.833 20.688 170.417 18.896 169.585 17.424C168.753 15.952 167.665 14.864 166.321 14.16C164.977 13.424 163.521 13.056 161.953 13.056C160.353 13.056 158.881 13.424 157.537 14.16C156.225 14.864 155.169 15.952 154.369 17.424C153.569 18.896 153.169 20.688 153.169 22.8C153.169 24.944 153.553 26.752 154.321 28.224C155.121 29.696 156.177 30.8 157.489 31.536C158.801 32.24 160.241 32.592 161.809 32.592ZM192.512 36.432C190.048 36.432 187.808 35.872 185.792 34.752C183.808 33.632 182.24 32.048 181.088 30C179.968 27.92 179.408 25.52 179.408 22.8C179.408 20.112 179.984 17.744 181.136 15.696C182.32 13.616 183.92 12.032 185.936 10.944C187.952 9.824 190.208 9.264 192.704 9.264C195.2 9.264 197.456 9.824 199.472 10.944C201.488 12.032 203.072 13.6 204.224 15.648C205.408 17.696 206 20.08 206 22.8C206 25.52 205.392 27.92 204.176 30C202.992 32.048 201.376 33.632 199.328 34.752C197.28 35.872 195.008 36.432 192.512 36.432ZM192.512 32.592C194.08 32.592 195.552 32.224 196.928 31.488C198.304 30.752 199.408 29.648 200.24 28.176C201.104 26.704 201.536 24.912 201.536 22.8C201.536 20.688 201.12 18.896 200.288 17.424C199.456 15.952 198.368 14.864 197.024 14.16C195.68 13.424 194.224 13.056 192.656 13.056C191.056 13.056 189.584 13.424 188.24 14.16C186.928 14.864 185.872 15.952 185.072 17.424C184.272 18.896 183.872 20.688 183.872 22.8C183.872 24.944 184.256 26.752 185.024 28.224C185.824 29.696 186.88 30.8 188.192 31.536C189.504 32.24 190.944 32.592 192.512 32.592ZM226.431 36L216.111 24.384V36H211.743V0.48H216.111V21.36L226.239 9.696H232.335L219.951 22.8L232.383 36H226.431Z" fill="#3AA6D5"/>
</svg>
